/* XPM */
static char *_d317daf87404a06fca0defccf3194b5QSia68YdULGlIP4k[] = {
/* columns rows colors chars-per-pixel */
"32 32 142 2 ",
"   c None",
".  c #BD1B2D",
"X  c #C3272C",
"o  c #C62C2B",
"O  c #CD352B",
"+  c #CD3A2A",
"@  c #D23D2A",
"#  c #D64E26",
"$  c #D24528",
"%  c #D94D29",
"&  c #DA5526",
"*  c #DC5B25",
"=  c #DA5028",
"-  c #E05827",
";  c #E65829",
":  c #EA5E28",
">  c #F1572A",
",  c #F15A2A",
"<  c #F25F31",
"1  c #E26326",
"2  c #E36B23",
"3  c #ED6B26",
"4  c #F26327",
"5  c #F26C27",
"6  c #F26428",
"7  c #F26A2A",
"8  c #E77222",
"9  c #ED7225",
"0  c #ED7A22",
"q  c #F37425",
"w  c #F47C24",
"e  c #F47C2D",
"r  c #F26234",
"t  c #F36B34",
"y  c #F26D3D",
"u  c #F47B31",
"i  c #F3743C",
"p  c #F57C3B",
"a  c #F36F43",
"s  c #F3754A",
"d  c #F47C49",
"f  c #F68E1F",
"g  c #F7931E",
"h  c #F8951E",
"j  c #EF8320",
"k  c #F58422",
"l  c #F68A21",
"z  c #F68C2D",
"x  c #F79523",
"c  c #F79927",
"v  c #F89825",
"b  c #F7932B",
"n  c #F58333",
"m  c #F08B30",
"M  c #F58539",
"N  c #F79333",
"B  c #F79935",
"V  c #F89C36",
"C  c #F79A3B",
"Z  c #F8A034",
"A  c #F9A33A",
"S  c #F58342",
"D  c #F68D45",
"F  c #F58A4D",
"G  c #F79445",
"H  c #F79846",
"J  c #F7964A",
"K  c #F89E4C",
"L  c #F58B54",
"P  c #F4845B",
"I  c #F69451",
"U  c #F79B52",
"Y  c #F89C56",
"T  c #F6925B",
"R  c #F8A443",
"E  c #F9A945",
"W  c #F8A14C",
"Q  c #FAAD4C",
"!  c #F9AD54",
"~  c #F7A059",
"^  c #FAB356",
"/  c #FBB65D",
"(  c #F58B64",
")  c #F69B63",
"_  c #F6966D",
"`  c #F6996D",
"'  c #F69B75",
"]  c #F79F7A",
"[  c #F9A366",
"{  c #F9AC66",
"}  c #F9AB6B",
"|  c #FBB366",
" . c #FBBB66",
".. c #FAB46C",
"X. c #FBB96C",
"o. c #FAAE70",
"O. c #F7A17B",
"+. c #FAB172",
"@. c #FAB975",
"#. c #FABB7A",
"$. c #FBC06F",
"%. c #FCC272",
"&. c #FBC170",
"*. c #FCC178",
"=. c #F9B48B",
"-. c #FCC684",
";. c #FCCA80",
":. c #FCCA81",
">. c #FCC983",
",. c #FCCA82",
"<. c #FDCB83",
"1. c #FDCB84",
"2. c #FCCB85",
"3. c #FCC987",
"4. c #FDCC85",
"5. c #FDCC86",
"6. c #FDCD86",
"7. c #FCC986",
"8. c #FBC589",
"9. c #FBC48A",
"0. c #FCCB88",
"q. c #FDCB8A",
"w. c #FDCE8A",
"e. c #FDCF8A",
"r. c #FDCF8B",
"t. c #FDC98F",
"y. c #FCCA88",
"u. c #FDD08E",
"i. c #FDD18E",
"p. c #FDCB93",
"a. c #FCCB94",
"s. c #FDCC96",
"d. c #FDCE97",
"f. c #FAC398",
"g. c #FBC398",
"h. c #FCCA9D",
"j. c #FDD190",
"k. c #FDD290",
"l. c #FDD291",
"z. c #FBC4A7",
"x. c #FCCCA2",
"c. c #FCD0A4",
/* pixels */
"                        l.i.i.<.6.i.i.l.                        ",
"                  k.6.%./ Q A Z Z A Q / &.6.l.                  ",
"              l.*. .Z c h h h g g g h g c Z / *.l.              ",
"            e. .Z g g h h h h h g g g g h g h Z $.e.            ",
"          :.Q x g g g g g h g g g g h g g h g g v Q 6.          ",
"        :.E g h h g g h g g h g g g g g g g g g g g E <.        ",
"      6.E v Z x g g h g h g g g g g h h h h g g g g h E 6.      ",
"    i.^ x X.t.! g g g g h g g g h g g g g g h g g g h h ^ i.    ",
"    &.c ! a.a.| g 1 f g g g g g g g g g g g j 2 g h g R X.7.    ",
"  e.E V 8.p.X.m # X $ 0 g g g g g g g g g 8 + o & f l @.c.l.l.  ",
"  $.c X.a.X.v f $ . + j h g g g g g g g g 0 o . # k k +.x.h.q.  ",
"  Q B 8.@.x f f 1 & * g g g l g g g l g g f & & 1 k w G g.g.+.  ",
"6.B Y =.d 4 5 5 j g f f g f g f l g l g g f f f k w q q F Y D q.",
"*.u _ ' < > > 4 f f f f f f f f f f f f f l l f l q 5 7 7 T L #.",
"..t ] P > , > q k f k k l l l f l f l l f l l l l q 7 4 a z.O.+.",
"[ r O.s > , , q f k l l l l l l f l l f l l k k k q , , 6 ( d } ",
"[ t ] a > , > w l l l k l l l l l k l k k k k k w q 4 , , > , } ",
"{ r ' a , , , w l l l l k l k l k k k k w w w q e 5 7 , , , r @.",
"@.t ` d , 4 , w l f l l l k k k k k w w w w w q q 5 5 , 4 , t #.",
"-.p T L 4 5 5 q f q l l k l k k k k w k w w q 3 5 q q 7 4 4 S 7.",
"  I S ) q 5 q 3 : + * w l k k k w k k e w q % + ; q q q q 5 Y   ",
"  @.n [ n q q 5 O . o 8 k l k k k k w k w 1 X . @ w w q q e @.  ",
"  7.G H J k w k % o $ l k k k k k k k k k w O o - k k w w H 7.  ",
"    | z U l k k 0 0 3 w k f f l k l l k w 5 : 3 w l k k z |     ",
"    @.W x l l l f f l q 5 q w k f w q 5 7 5 q k f f f l K #.    ",
"      { B g h h g g h f k q 5 5 4 7 5 5 q w k f f g x C {       ",
"        ~ N g g g g g g g f k w w w w k k f g g g h B ~         ",
"          I N g g g g g g g g f f f g f g g h x x m I           ",
"            F M l g g g g g g g h g g g g h x l M F             ",
"              S p e l x g g g g h h g g x k e i d               ",
"                  y t 7 q w k k k w w q 7 r y                   ",
"                        r r < < r < < r                         "
};
