/* XPM */
static char *s49bg1CvjZZ_png[] = {
/* columns rows colors chars-per-pixel */
"32 32 179 2 ",
"   c None",
".  c #000005",
"X  c #0E0D1B",
"o  c #080615",
"O  c #110E1B",
"+  c #14121E",
"@  c #230D16",
"#  c #161421",
"$  c #181623",
"%  c #1C1A27",
"&  c #1D1E2B",
"*  c #361931",
"=  c #1F202E",
"-  c #22222E",
";  c #292B36",
":  c #292935",
">  c #312F3B",
",  c #2D313C",
"<  c #34353E",
"1  c #63200F",
"2  c #673113",
"3  c #52242B",
"4  c #54312C",
"5  c #4D2337",
"6  c #4F3132",
"7  c #722E26",
"8  c #6C3A30",
"9  c #6E463B",
"0  c #7B6338",
"q  c #333642",
"w  c #363A45",
"e  c #3D3F49",
"r  c #3E3D45",
"t  c #2D2553",
"y  c #403E48",
"u  c #583647",
"i  c #4B2F58",
"p  c #632E4F",
"a  c #5F347B",
"s  c #3D424D",
"d  c #3F4550",
"f  c #43434C",
"g  c #4A484C",
"h  c #534143",
"j  c #5B4C49",
"k  c #444B54",
"l  c #4B4C5B",
"z  c #474A53",
"x  c #574F5F",
"c  c #4C535D",
"v  c #58565F",
"b  c #695049",
"n  c #75504A",
"m  c #685755",
"M  c #785A54",
"N  c #7F695D",
"B  c #776855",
"V  c #4E5660",
"C  c #535962",
"Z  c #5A5D66",
"A  c #754F67",
"S  c #615A60",
"D  c #694679",
"F  c #5C6069",
"G  c #57606A",
"H  c #67686C",
"J  c #746D65",
"K  c #786867",
"L  c #79706B",
"P  c #6C6B72",
"I  c #726F75",
"U  c #75747A",
"Y  c #921D04",
"T  c #972006",
"R  c #942E15",
"E  c #86311D",
"W  c #8B2B14",
"Q  c #AE2102",
"!  c #B92403",
"~  c #A13623",
"^  c #CE2D03",
"/  c #C73108",
"(  c #D23200",
")  c #C63C14",
"_  c #D43619",
"`  c #B94B17",
"'  c #874736",
"]  c #A1553D",
"[  c #B95E3D",
"{  c #BE6432",
"}  c #FB4A0E",
"|  c #FF520F",
" . c #F94A18",
".. c #DF5F3D",
"X. c #E96621",
"o. c #885549",
"O. c #844550",
"+. c #886049",
"@. c #9A6653",
"#. c #A66E5A",
"$. c #B6755D",
"%. c #B9556D",
"&. c #896F68",
"*. c #9F7F6D",
"=. c #887572",
"-. c #95636A",
";. c #AD7F67",
":. c #BC7F66",
">. c #C85552",
",. c #C46B53",
"<. c #F57640",
"1. c #C77A72",
"2. c #9A806D",
"3. c #998877",
"4. c #AF8972",
"5. c #AC9179",
"6. c #CB9676",
"7. c #D89476",
"8. c #C78464",
"9. c #F18C66",
"0. c #FE9A64",
"q. c #D1A37F",
"w. c #292681",
"e. c #463C98",
"r. c #4139A1",
"t. c #695598",
"y. c #6F4C98",
"u. c #7E638D",
"i. c #694EA5",
"p. c #7F72B8",
"a. c #86858B",
"s. c #8B8B91",
"d. c #9A9695",
"f. c #959499",
"g. c #999698",
"h. c #AC9A86",
"j. c #B49E83",
"k. c #A18F91",
"l. c #BEA78D",
"z. c #B0A997",
"x. c #879AB1",
"c. c #A4A3A4",
"v. c #A9A6A7",
"b. c #A3AAB3",
"n. c #A3AABC",
"m. c #ADB5BC",
"M. c #B2B4B4",
"N. c #BABABC",
"B. c #CB9F80",
"V. c #DBB18E",
"C. c #D6B99B",
"Z. c #CAA688",
"A. c #F4B98E",
"S. c #C4AFAE",
"D. c #D7C39F",
"F. c #ECC39D",
"G. c #EDC7A4",
"H. c #FCCCA4",
"J. c #EAD3AE",
"K. c #F7D2A7",
"L. c #FFDFB3",
"P. c #FBE3BA",
"I. c #BCBFC1",
"U. c #CCCCCE",
"Y. c #C6C6C9",
"T. c #D0CECF",
"R. c #CECED1",
"E. c #C6CCD1",
"W. c #D2D3D3",
"Q. c #DBDBDC",
"!. c #D6D7DA",
"~. c #ECE3CB",
"^. c #FFEBC0",
"/. c #FFF6C9",
"(. c #F0EBDC",
"). c #DBE1E7",
"_. c #EEECE8",
"`. c #FEFFFF",
"'. c #F1FCFF",
/* pixels */
"                                                                ",
"                                                                ",
"                                                                ",
"                                                                ",
"                                                                ",
"                                      !.U a.                    ",
"                        Q.  U.e U P F q e < Y.                  ",
"                      R.v s.; q & w q C Z : <   Q.              ",
"                  a.M.H q - G s ; q f V w $ O ; y               ",
"                  r . q s q d w & l c w c , # o >               ",
"                  s.+ - w w & - c s % c k # $ O f               ",
"                  M.; G s - & c , # w ; % + $ # P g.            ",
"                  l , q J Z.N k k = f s X $ # o # a.            ",
"                  f q f C./.C.< V n b r h X : Z U.              ",
"                  c.    m /.3.H _.7.#.#.o.o f v.                ",
"                        I 3.^.P.G.7.o.I g.R.                    ",
"                    U.d.3.N &.h.B.$.@.K g.T.                    ",
"                  W.J 6.H.L.;.C.P.J.6.F.D.j Q.                  ",
"                  S 4.K.5.2.7.6.q.G.V.F.l.U                     ",
"                  J V.h.s.m ] ,.1.F.K.A.[ 4 !.                  ",
"                s.k.=.f.`.S.=.5 a D u.p 8 A t N.                ",
"              Q.x p.t.d.`.'.M / ^ %.r.i.7 u -.M !.              ",
"              N.B ^.P.*.C 6 )  .| >.e.y. .1 :.9 I.              ",
"                c.=.j.L @ ! } } _ i.w.t...E h v.                ",
"                    I.m.j 0.<.) R * * O.9.' I ).                ",
"                    E.W ~ C.8.4 b.m Y Q Q ^ 2 v.                ",
"                    c.3 X.( T 3 U.  K E ` o.W.                  ",
"                    b.i { 9 N.      m.q 2 b.                    ",
"                  !.g +.u             l q 0 B W.                ",
"                  n.z.M.x.              ).(.~.                  ",
"                                                                ",
"                                                                "
};
