/* XPM */
static char *s24eHejEFkl_png[] = {
/* columns rows colors chars-per-pixel */
"32 32 63 1 ",
"  c #2C1D2B",
". c #311F2D",
"X c #2F202C",
"o c #33212D",
"O c #3B252F",
"+ c #3F292F",
"@ c #3D2630",
"# c #3F2B31",
"$ c #412730",
"% c #442B31",
"& c #4D2D33",
"* c #463133",
"= c #4A3233",
"- c #543335",
"; c #593535",
": c #563A36",
"> c #5D3836",
", c #5C3D38",
"< c #623C36",
"1 c #613D38",
"2 c #683F38",
"3 c #674139",
"4 c #6C4339",
"5 c #6B4B3E",
"6 c #6B4C3E",
"7 c #6F4D3F",
"8 c #73463A",
"9 c #75473A",
"0 c #75483A",
"q c #754A3B",
"w c #73493C",
"e c #704E3F",
"r c #784A3A",
"t c #794C3B",
"y c #7B4F3D",
"u c #7C4F3E",
"i c #74503F",
"p c #7E523E",
"a c #7E543F",
"s c #724F40",
"d c #765140",
"f c #7A5341",
"g c #785440",
"h c #7F5540",
"j c #7F5942",
"k c #7F5B44",
"l c #81533E",
"z c #805540",
"x c #835B43",
"c c #845B43",
"v c #805C44",
"b c #845C44",
"n c #855E45",
"m c #885D43",
"M c #895E44",
"N c #8C5F44",
"B c #8C6045",
"V c #8F6446",
"C c #916647",
"Z c #926748",
"A c #986E4A",
"S c #996F4C",
"D c #9D714C",
/* pixels */
"&;4rr4;&%,nCp99pCj*    *kZp99pVA",
"&-<44<&%%,zNp99pMf%o#**:dxy99ymV",
"&&---&OO%;wpt00rp4+@5kkd318000yp",
"&-;,,;@o$=<444894<=,jZZx4,349000",
"%;dnnd-@oO&-->44>1djappzcf1>4000",
",4cZZn5-OO-,,14<&:jBu88uMh;&<444",
"nxzppzne%%7Mnf1&O%4pr99rp4%O&;;;",
"CMy88uNg%%dZZn4-OO;490094;OoO%&&",
"pur99rp4$$4lpzne%o&>40r8<&o  O%&",
"4480094;OO;48pBg*.O&<44<&$%**%%%",
"->4004>&oo&>4tp4$ o@=;;&O%6vv6%.",
"%&<44<&@oo@=<44>O  o@%%%%,jZZj,*",
"o@&;;&O.  oO=;;&o   ooo*7jhppajj",
" o@%%&***%OO$%%%***%O. *gNu88yMC",
" XoO%;ekve-@Oo.%7vve-O.$4pr990up",
"  o@;5nZZn5-Oo#,jZZn5;@$<0000000",
" oO;dnzppzne%#5jhppznd;-40000000",
" o%1xMp84wz7%%gNp89pMx,-<4900844",
" o%;0pr4>;>-O$4pr09rpw;&->4004>-",
" o@&<4431,,-O$<008444<&$$&<44<&$",
"  o@&--1fnni-&2004>--&Ooo@=;;&O.",
"*%Oo$&;4nZZn4144431,,:=%ooO%%%**",
"ve-@o*snzppzng1--1fnnnv5# oo.%6k",
"Cn5-O*gNu88uMh;&;4nCCCCj,#oo#,jZ",
"pzne%$4pr99rp4%%enzpppphx5@@5jhp",
"9pMd%O;490000<$*gMu8998uBg**gBp9",
"0rp4+o&>400004--wpr9999rpw--wpr0",
"44yw:%$&<4444<&&<49000094<&&;<44",
"-1xVn5%O&;;;-&OO&>8r0004>&OoO$-;",
",4xCCj,%%%$&;:=*&-><444<=%%**%%%",
"nxhpphj7*oo*enve;%$%--;&O%6kk6%o",
"SCp88pZv*  *kDDn1$oo%&&$o*jDDj* "
};
