/* XPM */
static char *s49Fipvrk1c_png[] = {
/* columns rows colors chars-per-pixel */
"32 32 203 2 ",
"   c None",
".  c #002D00",
"X  c #003D02",
"o  c #003600",
"O  c #143802",
"+  c #034503",
"@  c #084504",
"#  c #044C05",
"$  c #034309",
"%  c #054B0B",
"&  c #144A00",
"*  c #134905",
"=  c #065304",
"-  c #0A5702",
";  c #144E10",
":  c #1B5507",
">  c #245302",
",  c #375C04",
"<  c #21471E",
"1  c #285813",
"2  c #0D6501",
"3  c #1A6B05",
"4  c #156708",
"5  c #1C7A00",
"6  c #1F7303",
"7  c #2B620A",
"8  c #3B6503",
"9  c #3C6D07",
"0  c #217304",
"q  c #2A7F05",
"w  c #267807",
"e  c #3E7500",
"r  c #2A6A10",
"t  c #277312",
"y  c #215F28",
"u  c #3C5C3A",
"i  c #3B6E3C",
"p  c #246228",
"a  c #476D04",
"s  c #4B7D02",
"d  c #477706",
"f  c #517E01",
"g  c #4D6313",
"h  c #627410",
"j  c #406B3D",
"k  c #7F6623",
"l  c #4F6B44",
"z  c #537840",
"x  c #92702C",
"c  c #C3364E",
"v  c #AB4546",
"b  c #298404",
"n  c #348B03",
"m  c #378605",
"M  c #3D9503",
"N  c #3F9B02",
"B  c #349401",
"V  c #4E8400",
"C  c #458B02",
"Z  c #518402",
"A  c #558A01",
"S  c #5B8F04",
"D  c #439C02",
"F  c #459606",
"G  c #5A9401",
"H  c #559F0C",
"J  c #458F1D",
"K  c #4F8412",
"L  c #499117",
"P  c #629A03",
"I  c #659C0A",
"U  c #649706",
"Y  c #6B9B15",
"T  c #679B14",
"R  c #44A201",
"E  c #48A401",
"W  c #5FA706",
"Q  c #64A30C",
"!  c #6EA40A",
"~  c #72A40C",
"^  c #66A519",
"/  c #78AA18",
"(  c #7FB714",
")  c #67B418",
"_  c #408124",
"`  c #4A9320",
"'  c #4B8637",
"]  c #5A8938",
"[  c #579033",
"{  c #5F9829",
"}  c #719922",
"|  c #6B9636",
" . c #649D25",
".. c #6FAE24",
"X. c #79A725",
"o. c #5B8E43",
"O. c #5F934F",
"+. c #708A4D",
"@. c #6D9F4C",
"#. c #678150",
"$. c #698B69",
"%. c #798B6A",
"&. c #799671",
"*. c #7DAC60",
"=. c #808018",
"-. c #87BB1D",
";. c #829928",
":. c #89BA26",
">. c #83AC3E",
",. c #92BE38",
"<. c #94A936",
"1. c #8EC21D",
"2. c #91C41E",
"3. c #8CC224",
"4. c #97CA28",
"5. c #9FD22A",
"6. c #9DCB39",
"7. c #9CCB39",
"8. c #A6D72D",
"9. c #A2CC39",
"0. c #A5D432",
"q. c #ACDC34",
"w. c #ADDB3B",
"e. c #A8D838",
"r. c #B1DF3C",
"t. c #AEE22E",
"y. c #B3E335",
"u. c #B4E43A",
"i. c #BAEA3D",
"p. c #98BA49",
"a. c #90AB5D",
"s. c #99BD5C",
"d. c #86A84D",
"f. c #A7A346",
"g. c #839D7D",
"h. c #849B66",
"j. c #9FB969",
"k. c #8BA373",
"l. c #95A876",
"z. c #88B576",
"x. c #9FB37B",
"c. c #A0B56E",
"v. c #BBAA68",
"b. c #C69F4D",
"n. c #C58B70",
"m. c #9BC455",
"M. c #BFC744",
"N. c #ABD24B",
"B. c #ABD347",
"V. c #B1D743",
"C. c #A4C857",
"Z. c #B8D75F",
"A. c #A7C54E",
"S. c #ACE044",
"D. c #B7E446",
"F. c #BCE155",
"G. c #A1C472",
"H. c #B3CF70",
"J. c #B9D277",
"K. c #BFE16A",
"L. c #C5F246",
"P. c #CBD267",
"I. c #8A9D89",
"U. c #98A989",
"Y. c #99BD89",
"T. c #95AC93",
"R. c #9EB59A",
"E. c #A3BB87",
"W. c #ACB59E",
"Q. c #A0B296",
"!. c #A4B4A4",
"~. c #ADBCA8",
"^. c #B2BEAC",
"/. c #ACC087",
"(. c #B0CA9C",
"). c #B3D28E",
"_. c #B7C7A3",
"`. c #BCC4B5",
"'. c #C1D58B",
"]. c #C6E28E",
"[. c #D5ED82",
"{. c #DCEE94",
"}. c #E5F694",
"|. c #C9D8A6",
" X c #C4C6BA",
".X c #C4CDBB",
"XX c #C9CBBE",
"oX c #D3DBBA",
"OX c #C2CAA6",
"+X c #D0E0B3",
"@X c #C4C5C5",
"#X c #CACBC5",
"$X c #C8CAC7",
"%X c #D1CBCC",
"&X c #CCD2C7",
"*X c #D4D9CE",
"=X c #D2D1CC",
"-X c #D8DBD6",
";X c #D4E4C2",
":X c #DCE3C7",
">X c #E3DFE1",
",X c #EBEBE2",
"<X c #FFFFFC",
/* pixels */
"                                                                ",
"                              |.].+X;X;X                        ",
"                          OX9.8.t.0.q.q.p.*X                    ",
"            /.,.X.d.a..X  9.y.w.r.q.u.q.G |                     ",
"          c.3.3.s Y -.X.p.y.q.y.u.0.u.0.P V ~.                  ",
"        z.^ ^ F n C ! Y C.u.q.y.y.6.i.0.P A k.                  ",
"      U.' 2 b 3 ).[ Z r m.u.e.u.q.9.i.8.P V h.                  ",
"      .X@X_ m . !.U.,  .C.u.y.i.5.N.L.4.G s W.                  ",
"        &X` 2 u $X  ] X.Z.S.u.q.2.K.w.P U 9 T.                  ",
"        !.$.&.      +.I Y <.M.4.I :.G P S 7 & I.                ",
"          %X        R.C :.;.c b.Q Z =.h d d @ T.                ",
"                    *Xm Q B.f.x ^ k v g d & i <XU.k.            ",
"                      o.B >.D.A.P.;.Z K : 7 ;X>Xx.8 #X          ",
"                      &.5 F ..v.n.} s * # s.,X X).e %.          ",
"                oXoXY.L q 4 3 ) W C n # + E.-X XG.( +.          ",
"            '.N.0.0.4.H D 3 $ 3 n D R # = z.%XXXp 7.} &X        ",
"          J.{.B.5.u.D.6.M 6 $ % + @ $ @ M n o.' @ N.~ l.        ",
"        |.[.[.e.! / / / m 0 o X - 0 m M N N n - $ ,.G U.        ",
"        |.0.1.! Z G G a w 5 i !.(.D E R M M D q # 1 f U.        ",
"          / P S , , 8 O 1 R.,X-X#XJ 0 4 w b M E b + & `.        ",
"          |.:.G A d 8 < @X  ^.OXg.t = X X X m R J Y.T.          ",
"            oXs.T I 9 $.^.  E.H.C.5.X.7 z > + q Q.              ",
"                { b y %.`.  _.C.}.y.1.f .X:XR.; W. X            ",
"                _.@.g.        j.{.Z.:.a $X    ~.`.&X X          ",
"                              d.7.F.F.|             #X*X        ",
"                            &XU e.-.G E.                        ",
"                            l.:.D.d %.                          ",
"                          *.L V.U #.                            ",
"                        =X| B - l                               ",
"                            [ j @X                              ",
"                            #X                                  ",
"                                                                "
};
