/* XPM */
static char *s49cbKYnhxB_png[] = {
/* columns rows colors chars-per-pixel */
"32 32 204 2 ",
"   c None",
".  c #001800",
"X  c #180719",
"o  c #043A0B",
"O  c #2C2018",
"+  c #14372A",
"@  c #342034",
"#  c #54370B",
"$  c #653802",
"%  c #442823",
"&  c #024A05",
"*  c #085D0B",
"=  c #175708",
"-  c #0E5D1B",
";  c #1A4911",
":  c #255B14",
">  c #214A15",
",  c #006201",
"<  c #086C02",
"1  c #126C02",
"2  c #027B03",
"3  c #007500",
"4  c #177A07",
"5  c #156817",
"6  c #2D600C",
"7  c #3F6107",
"8  c #217F05",
"9  c #287714",
"0  c #3A781D",
"q  c #1B5726",
"w  c #3E4F25",
"e  c #20522E",
"r  c #2A5135",
"t  c #3A7221",
"y  c #2D7A31",
"u  c #47521C",
"i  c #54520C",
"p  c #63411C",
"a  c #446A0C",
"s  c #666514",
"d  c #705936",
"f  c #536533",
"g  c #707730",
"h  c #3C5E41",
"j  c #2E4346",
"k  c #537F4F",
"l  c #436558",
"z  c #507353",
"x  c #47774B",
"c  c #607E51",
"v  c #4C7060",
"b  c #566865",
"n  c #807032",
"m  c #9A7421",
"M  c #D96A00",
"N  c #916A41",
"B  c #907855",
"V  c #AA7A49",
"C  c #826D74",
"Z  c #BC796A",
"A  c #0B8805",
"S  c #17880B",
"D  c #189211",
"F  c #0E9705",
"G  c #2F8002",
"H  c #22970A",
"J  c #288415",
"K  c #0AA300",
"L  c #0AAB01",
"P  c #17A205",
"I  c #13B302",
"U  c #1ABC04",
"Y  c #21A402",
"T  c #29B908",
"R  c #37BB0B",
"E  c #2CAA15",
"W  c #38BF11",
"Q  c #33A815",
"!  c #3A8936",
"~  c #36B231",
"^  c #448410",
"/  c #5F8014",
"(  c #47940C",
")  c #619219",
"_  c #66871F",
"`  c #4E8F38",
"'  c #528B2D",
"]  c #47BA27",
"[  c #4EA032",
"{  c #56A633",
"}  c #61B030",
"|  c #1CC504",
" . c #29C908",
".. c #30D307",
"X. c #3BC915",
"o. c #3AD210",
"O. c #24D404",
"+. c #2BE905",
"@. c #42D11F",
"#. c #45C11A",
"$. c #46E019",
"%. c #42C420",
"&. c #5BC72B",
"*. c #65CB33",
"=. c #6FDD36",
"-. c #73D03C",
";. c #6AE436",
":. c #3F8142",
">. c #5A835B",
",. c #669055",
"<. c #759640",
"1. c #59B348",
"2. c #5DB650",
"3. c #57A44D",
"4. c #65A64D",
"5. c #61B858",
"6. c #5F8862",
"7. c #64866A",
"8. c #6C8E71",
"9. c #69B763",
"0. c #A78C32",
"q. c #84884D",
"w. c #989545",
"e. c #8A8B50",
"r. c #97855A",
"t. c #A0844B",
"y. c #AE9D54",
"u. c #A8974C",
"i. c #81B15D",
"p. c #B9A346",
"a. c #BBAE51",
"s. c #879E6E",
"d. c #8D8173",
"f. c #9A8877",
"g. c #909A7B",
"h. c #A98265",
"j. c #B98666",
"k. c #A69667",
"l. c #AA8C6E",
"z. c #82A86D",
"x. c #C09440",
"c. c #C1AE4A",
"v. c #CEB750",
"b. c #C3886B",
"n. c #C69A6C",
"m. c #D39877",
"M. c #CB8A76",
"N. c #C7B667",
"B. c #D7AB77",
"V. c #CAB274",
"C. c #E0B677",
"Z. c #E0CC5A",
"A. c #C7D07D",
"S. c #E2C473",
"D. c #798A83",
"F. c #7D9588",
"G. c #9B988B",
"H. c #A58F8D",
"J. c #B79780",
"K. c #8DA29D",
"L. c #BFA485",
"P. c #BBAD87",
"I. c #A8B58B",
"U. c #BEB887",
"Y. c #AEBB93",
"T. c #B8B89D",
"R. c #A9A698",
"E. c #9AA8A6",
"W. c #B0BCAD",
"Q. c #C5A788",
"!. c #CFB384",
"~. c #D3A387",
"^. c #E1A687",
"/. c #C2BCA2",
"(. c #C4BCB4",
"). c #9FC599",
"_. c #AAC1A2",
"`. c #B5C4A6",
"'. c #B8C6B4",
"]. c #B7D3B1",
"[. c #CDC88A",
"{. c #D9CC8E",
"}. c #EAC989",
"|. c #E4D589",
" X c #E9D493",
".X c #E8DC99",
"XX c #F1CA99",
"oX c #EBE193",
"OX c #FFF89F",
"+X c #C5C0AC",
"@X c #D4CBBB",
"#X c #C0D2B2",
"$X c #D9D1BB",
"%X c #EDE5AF",
"&X c #DFCFC3",
"*X c #CED1CB",
"=X c #DBD9DD",
"-X c #D8D9D6",
";X c #CFD2C7",
":X c #E6DFDD",
">X c #D3E0D5",
",X c #FFFBC6",
"<X c #E3E6D9",
"1X c #E1EDE8",
/* pixels */
"                                                                ",
"                                                                ",
"                                                                ",
"                                                                ",
"                                                                ",
"                                                                ",
"                                                                ",
"                                                                ",
"                                                                ",
"                                                                ",
"                                                                ",
"                                                                ",
"            B             E.F.q >.7.D.l                         ",
"            p X       l k ' } &.#.%.] 4.z K.                    ",
"            # @ R.h e J R Y 8 6 u a P @.-.,.r                   ",
"          T.$ O ,.,.9 H = d j.B.C.m.N < I ;.[ 7.                ",
"          h.# ! 4.` : % b.S.v.c.p.c.|.j.7 T =.9 c               ",
"          0 : J 4 = w n.Z.N.$X=X=X(.y.}.q.T R *.>.              ",
"        ).K 2 * * o g p.q.*X        -Xw.*.L | $.[ v             ",
"        5.K < ; o s w.:X  I.I.      >X9 W P P  .] q             ",
"      '.1 H A.[.u.0.`.        Y.T.W.z.E T A &  .X.:.            ",
"      8.1 i.,XOXV.s.<X  =X].        2.L F > i U o.5 F.          ",
"      9.A H.OX0.f #X  `.m i 4 ).    1.Q 2 f n U  .y             ",
"      E t k.a.u _.    %Xx.s T X.] E S S , k.g | ..y             ",
"    1.0 C N.g _.      v.M i G < 2 3 & + f n.^  .I 7.            ",
"    3.D.R.V.*X        <XQ.~.&XE.6.x W.(. XV T  .D l             ",
"        +X$X                        @X[.m.( +.I -               ",
"                          =X-X;X/.U.{.^._ +.U , E.              ",
"    1X'.G.d.f.f.f.J.Q.L.P.U.[.{. XXXb.) O.P & j                 ",
"  g.d B k.V.|.oX|.oXoX.X X}.B.n.t./ Y K , .                     ",
"  L.{.%X%X.X.X!.m.M.Z h.r.e.<.{ ] ~ ! r b                       ",
"                                                                "
};
